# xmcd CD database file
#
# Track frame offsets:
#	150
#	15554
#	30227
#	45387
#	59894
#	75281
#	88909
#	106812
#	122486
#	136549
#
# Disc length: 2013 seconds
#
# Revision: 2
# Processed by: cddbd v1.4PL0 Copyright (c) Steve Scherf et al.
# Submitted via: CDex 1.40Release
#
DISCID=6b07db0a
DTITLE=Nitty Gritty Dirt Band - Let's Go
DYEAR=1900
DGENRE=Country
TTITLE0=Heartaches In Heartaches
TTITLE1=Special Look
TTITLE2=Shot Full Of Love
TTITLE3=Never Together (But Close Sometimes)
TTITLE4=Goodbye Eyes
TTITLE5=Maryann
TTITLE6=Too Many Heartaches
TTITLE7=Don't Get Stand In It
TTITLE8=Let's Go
TTITLE9=Dance Little Jean
EXTD=ID3G: 2
EXTT0=
EXTT1=
EXTT2=
EXTT3=
EXTT4=
EXTT5=
EXTT6=
EXTT7=
EXTT8=
EXTT9=
PLAYORDER=
